HIERARCHY
ROOT Hips
{
	OFFSET 0.00000 0.00000 0.00000
	CHANNELS 6 Xposition Yposition Zposition Zrotation Yrotation Xrotation 
	JOINT LHipJoint
	{
		OFFSET 0 0 0
		CHANNELS 3 Zrotation Yrotation Xrotation
		JOINT LeftHip
		{
			OFFSET 1.58895 -1.83665 0.71753
			CHANNELS 3 Zrotation Yrotation Xrotation
			JOINT LeftKnee
			{
				OFFSET 2.50528 -6.88321 0.00000
				CHANNELS 3 Zrotation Yrotation Xrotation
				JOINT LeftAnkle
				{
					OFFSET 2.63244 -7.23257 0.00000
					CHANNELS 3 Zrotation Yrotation Xrotation
					JOINT LeftToe
					{
						OFFSET 0.23691 -0.65090 1.72750
						CHANNELS 3 Zrotation Yrotation Xrotation
						End Site
						{
							OFFSET 0.00000 -0.00000 0.92561
						}
					}
				}
			}
		}
	}
	JOINT RHipJoint
	{
		OFFSET 0 0 0
		CHANNELS 3 Zrotation Yrotation Xrotation
		JOINT RightHip
		{
			OFFSET -1.51435 -1.83665 0.71753
			CHANNELS 3 Zrotation Yrotation Xrotation
			JOINT RightKnee
			{
				OFFSET -2.54551 -6.99375 0.00000
				CHANNELS 3 Zrotation Yrotation Xrotation
				JOINT RightAnkle
				{
					OFFSET -2.66027 -7.30903 0.00000
					CHANNELS 3 Zrotation Yrotation Xrotation
					JOINT RightToe
					{
						OFFSET -0.22981 -0.63138 2.03959
						CHANNELS 3 Zrotation Yrotation Xrotation
						End Site
						{
							OFFSET -0.00000 -0.00000 1.07060
						}
					}
				}
			}
		}
	}
	JOINT lowerback
	{
		OFFSET 0 0 0
		CHANNELS 3 Zrotation Yrotation Xrotation
		JOINT Chest
		{
			OFFSET -0.02651 1.86275 -0.11152
			CHANNELS 3 Zrotation Yrotation Xrotation
			JOINT Chest2
			{
				OFFSET 0.01019 1.86224 0.04087
				CHANNELS 3 Zrotation Yrotation Xrotation
				JOINT lowerneck
				{
					OFFSET 0 0 0
					CHANNELS 3 Zrotation Yrotation Xrotation
					JOINT Neck
					{
						OFFSET -0.01926 1.80512 0.08867
						CHANNELS 3 Zrotation Yrotation Xrotation
						JOINT Head
						{
							OFFSET 0.05516 1.76451 -0.38475
							CHANNELS 3 Zrotation Yrotation Xrotation
							End Site
							{
								OFFSET 0.01592 1.82587 -0.14001
							}
						}
					}
				}
				JOINT LeftCollar
				{
					OFFSET 0 0 0
					CHANNELS 3 Zrotation Yrotation Xrotation
					JOINT LeftShoulder
					{
						OFFSET 3.47116 1.51376 0.14491
CHANNELS 3 Zrotation Xrotation Yrotation
						JOINT LeftElbow
						{
OFFSET 0 -4.780950 0.000000
CHANNELS 3 Zrotation Xrotation Yrotation
							JOINT LeftWrist
							{
OFFSET 0 -3.586150 -0.000000
CHANNELS 3 Zrotation Xrotation Yrotation
								JOINT lhand
								{
									OFFSET 0 0 0
CHANNELS 3 Zrotation Xrotation Yrotation
									JOINT LFingers
									{
OFFSET 0 -0.659810 0.000000
CHANNELS 3 Zrotation Xrotation Yrotation
										End Site
										{
OFFSET 0 -0.531960 0.000000
										}
									}
								}
								JOINT LThumb
								{
OFFSET 0 0.000000 0.000000
CHANNELS 3 Zrotation Xrotation Yrotation
									End Site
									{
OFFSET 0 -0.540080 0.540080
									}
								}
							}
						}
					}
				}
				JOINT RightCollar
				{
					OFFSET 0 0 0
					CHANNELS 3 Zrotation Yrotation Xrotation
					JOINT RightShoulder
					{
						OFFSET -3.31725 1.61216 0.35156
CHANNELS 3 Zrotation Xrotation Yrotation
						JOINT RightElbow
						{
OFFSET 0 -4.489130 0.000000
CHANNELS 3 Zrotation Xrotation Yrotation
							JOINT RightWrist
							{
OFFSET 0 -3.705100 0.000000
CHANNELS 3 Zrotation Xrotation Yrotation
								JOINT rhand
								{
									OFFSET 0 0 0
CHANNELS 3 Zrotation Xrotation Yrotation
									JOINT RFingers
									{
OFFSET 0 -0.449140 0.000000
CHANNELS 3 Zrotation Xrotation Yrotation
										End Site
										{
OFFSET 0 -0.362110 0.000000
										}
									}
								}
								JOINT RThumb
								{
OFFSET 0 0.000000 0.000000
CHANNELS 3 Zrotation Xrotation Yrotation
									End Site
									{
OFFSET 0 -0.367630 0.367630
									}
								}
							}
						}
					}
				}
			}
		}
	}
}
MOTION
Frames: 4
Frame Time: 0.008333333333333333
-0.601100 18.767600 4.514400 -2.331800 -2.785500 4.760400 0.000000 0.000000 0.000000 -12.294500 -9.017400 -5.491700 1.294800 7.209400 20.337300 1.531200 3.658400 -24.936700 7.996900 -16.117000 -52.551700 0.000000 0.000000 0.000000 15.793600 -10.015000 -1.424600 0.000000 0.000000 -0.000000 -0.170000 1.486900 -7.408200 -0.019700 0.906100 -2.490400 -1.091400 1.378600 -2.277300 0.349500 1.853400 -2.901800 0.981700 0.952000 -1.745200 -2.150400 -3.918300 -8.920600 4.017600 -6.122900 24.413400 1.088200 -2.644100 9.328500 0.000000 0.000000 0.000000 -0.882000 12.153300 -25.123500 20.578200 -31.332700 5.829100 13.275800 2.027800 30.640200 0.000000 0.000000 0.000000 -7.125000 0.000000 0.000000 -10.296100 -0.901800 -10.628900 0.000000 0.000000 0.000000 -1.388000 20.412900 28.330100 -25.465700 -36.676200 -8.566500 -11.100000 21.486000 40.287000 0.000000 0.000000 0.000000 7.125000 0.000000 -0.000000 34.286800 67.849100 -19.717900
-0.601453 18.766780 4.514820 -2.270208 -2.760024 4.734322 0.000000 0.000000 0.000000 -12.366713 -9.002059 -5.469870 1.293073 7.204840 20.323533 1.523120 3.662464 -24.877888 8.018586 -16.132940 -52.629625 0.000000 0.000000 0.000000 15.728701 -10.050998 -1.409996 0.000000 0.000000 0.000000 -0.170273 1.492428 -7.413796 -0.023041 0.979185 -2.691569 -1.140485 1.376352 -2.233623 0.330879 1.850231 -2.917252 0.988555 0.951419 -1.786441 -2.100978 -3.906444 -8.889281 3.980332 -6.104236 24.376531 1.069963 -2.635911 9.306059 0.000000 0.000000 0.000000 -0.845030 12.189599 -25.214271 20.617763 -31.379443 5.849615 13.146705 2.006288 30.594928 0.000000 0.000000 0.000000 -7.125000 0.000000 0.000000 -10.366261 -0.837467 -10.692253 0.000000 0.000000 0.000000 -1.366963 20.439554 28.328785 -25.467322 -36.677829 -8.567435 -11.521403 21.788939 40.160827 0.000000 0.000000 0.000000 7.125000 0.000000 0.000000 33.638413 67.878333 -19.333719
-0.602427 18.764953 4.515167 -2.225627 -2.732527 4.688597 0.000000 0.000000 0.000000 -12.414582 -8.974191 -5.443530 1.292687 7.203933 20.321000 1.518479 3.620840 -24.822525 8.016081 -16.131047 -52.620523 0.000000 0.000000 0.000000 15.681667 -10.094777 -1.370163 0.000000 0.000000 0.000000 -0.171607 1.510379 -7.442230 -0.032136 1.155837 -3.177612 -1.186867 1.362726 -2.202236 0.322721 1.832006 -2.903301 1.005475 0.943046 -1.790356 -2.021487 -3.880575 -8.899695 3.915234 -6.064821 24.350560 1.038513 -2.617377 9.292722 0.000000 0.000000 0.000000 -0.814775 12.178308 -25.255509 20.638598 -31.404025 5.860479 13.144133 1.955016 30.540655 0.000000 0.000000 0.000000 -7.125000 0.000000 0.000000 -10.363218 -0.783372 -10.679262 0.000000 0.000000 0.000000 -1.392575 20.441599 28.432114 -25.485388 -36.695988 -8.578288 -12.273640 22.194573 39.841867 0.000000 0.000000 0.000000 7.125000 0.000000 0.000000 32.333726 67.853236 -18.503906
-0.604341 18.763860 4.515660 -2.223837 -2.700290 4.642763 0.000000 0.000000 0.000000 -12.397299 -8.845274 -5.450309 1.292660 7.203680 20.320241 1.513940 3.500973 -24.729448 8.017117 -16.131777 -52.624208 0.000000 0.000000 0.000000 15.683538 -10.143896 -1.317900 0.000000 0.000000 0.000000 -0.173860 1.537767 -7.487149 -0.044825 1.363986 -3.750823 -1.191162 1.362624 -2.177284 0.324277 1.831765 -2.877875 1.009138 0.942882 -1.778444 -1.996418 -3.859895 -8.898729 3.925756 -6.038956 24.279030 1.040906 -2.602937 9.266008 0.000000 0.000000 0.000000 -0.789407 12.125629 -25.270072 20.628514 -31.392173 5.855237 13.262690 1.904745 30.497425 0.000000 0.000000 0.000000 -7.125000 0.000000 0.000000 -10.291783 -0.758490 -10.598764 0.000000 0.000000 0.000000 -1.390085 20.406568 28.446818 -25.488795 -36.699375 -8.580297 -12.620750 22.330432 39.518237 0.000000 0.000000 0.000000 7.125000 0.000000 0.000000 31.464637 67.696339 -17.857399
